# xmcd CD database file
#
# Track frame offsets:
#	182
#	10560
#	25337
#	38912
#	60027
#	80552
#	96760
#	108195
#	128542
#	145542
#	160212
#	192305
#	214037
#	230622
#
# Disc length: 3238 seconds
#
# Revision: 0
# Processed by: cddbd v1.5PL3 Copyright (c) Steve Scherf et al.
# Submitted via: CDex 1.51
#
DISCID=a40ca40e
DTITLE=Red Rooster - Straight from the heart
DYEAR=1993
DGENRE=Blues
TTITLE0=Red one
TTITLE1=Foolin' me
TTITLE2=Jim's cafe
TTITLE3=This morning
TTITLE4=Love is gone
TTITLE5=The blues don't care
TTITLE6=My automobile
TTITLE7=I found the blues
TTITLE8=Little dog
TTITLE9=I'm an easy man
TTITLE10=Cold feeling
TTITLE11=Talking to the blues
TTITLE12=TV mama
TTITLE13=Tribute to CCR
EXTD=YEAR: 1993
EXTT0=
EXTT1=
EXTT2=
EXTT3=
EXTT4=
EXTT5=
EXTT6=
EXTT7=
EXTT8=
EXTT9=
EXTT10=
EXTT11=
EXTT12=
EXTT13=
PLAYORDER=
